<svg xmlns="http://www.w3.org/2000/svg" viewBox="0 0 32 32"><path fill="#ef4a4c" d="M7.5 2.5a2 2 0 0 0-2 2v23a2 2 0 0 1 2-2h17v-21a2 2 0 0 0-2-2h-15z"/><path fill="#ef4a4c" d="M22.5 29.5h-15a2 2 0 0 1-2-2v-23a2 2 0 0 1 2-2h15a2 2 0 0 1 2 2v23a2 2 0 0 1-2 2z"/><path fill="#ef4a4c" d="M22.5 29.5h-15a2 2 0 0 1-2-2v-23a2 2 0 0 1 2-2h15a2 2 0 0 1 2 2v23a2 2 0 0 1-2 2z"/><path fill="#4b6c85" d="M9.5 5.5h11v5h-11z"/><path fill="#40657c" d="M10.5 10.5a4 4 0 0 1 4-4h6v-1h-11v5h1z"/><path fill="#eef2fa" d="M17 15.5h-1v-1a1 1 0 0 0-2 0v1h-1a1 1 0 0 0 0 2h1v4a1 1 0 0 0 2 0v-4h1a1 1 0 0 0 0-2z"/><path fill="#d5e5f2" d="M17 15.5h-.5a1 1 0 0 1 0 2h.5a1 1 0 0 0 0-2zM16 14.5a.998.998 0 0 0-.989-.998h-.023a1.115 1.115 0 0 0-.202.021c.398.131.714.499.714.941V15a.5.5 0 0 0 .5.5v-1zM15.5 21.5c0 .464-.322.855-.75.968A1 1 0 0 0 16 21.5v-4a.5.5 0 0 0-.5.5v3.5z"/><path fill="#eef2fa" d="M22.5 29.5h-15a2 2 0 1 1 0-4h17v2a2 2 0 0 1-2 2z"/><path fill="#d5e5f2" d="M7.5 27.5a2 2 0 0 1 2-2h-2a2 2 0 1 0 0 4h2a2 2 0 0 1-2-2z"/><path fill="#e0313f" d="M24.5 4.5a2 2 0 0 0-2-2h-15a2 2 0 0 0-2 2v23a2 2 0 0 1 2-2h17v-2h-14a3 3 0 0 1-3-3v-12a4 4 0 0 1 4-4h13z"/><path fill="#d5e5f2" d="M7.5 27a.5.5 0 0 0 0 1h16l1-1h-17z"/><path fill="#b0c4da" d="M7.571 27H7.5a.5.5 0 0 0 0 1h.071a1.96 1.96 0 0 1-.071-.5c0-.174.029-.339.071-.5z"/><path fill="#eef2fa" d="M22 25.5h2.5V23a2.5 2.5 0 0 1-2.5 2.5z"/><path fill="#e0313f" d="M22 23.5H7.5a2 2 0 0 0-2 2v2a2 2 0 0 1 2-2H22a2.5 2.5 0 0 0 2.5-2.5v-2a2.5 2.5 0 0 1-2.5 2.5z"/><path fill="#d5e5f2" d="M22 27h2.5v-2.5A2.5 2.5 0 0 1 22 27z"/><path fill="#eef2fa" d="M22 28h1.5a1 1 0 0 0 1-1v-1.5A2.5 2.5 0 0 1 22 28z"/><circle cx="18.5" cy="23.5" r=".5" fill="#004463"/><circle cx="20.5" cy="23.5" r=".5" fill="#004463"/><circle cx="22.5" cy="23.5" r=".5" fill="#004463"/><path fill="#003c51" d="M22.5 24a.5.5 0 0 0 .461-.693A2.48 2.48 0 0 1 22 23.5a.5.5 0 0 0 .5.5zM20.5 24a.5.5 0 0 0 .5-.5h-1a.5.5 0 0 0 .5.5zM18.5 24a.5.5 0 0 0 .5-.5h-1a.5.5 0 0 0 .5.5z"/></svg>